#!OML:ASF H:\MichaelJackson\Top Level 1\Subject 1\Session 1\male.ASF
:FULLY-SPECIFIED
:DEGREES
1092
root 4.77909 16.963 9.45135 -5.91885 18.5639 -0.479992
lowerback 11.9104 -2.79476 -7.44546
upperback 1.69854 -4.70618 -1.23868
thorax -4.38462 -2.20812 3.5865
lowerneck -6.60836 -4.266 1.12257
upperneck 4.43728 -6.03797 3.8746
head 2.65217 -2.85401 0.786833
rclavicle 3.46382e-014 -9.54166e-015
rhumerus -54.3394 -5.91019 -77.8575
rradius 110.94
rwrist 16.7022
rhand -19.9134 -21.1019
rfingers 7.12502
rthumb 6.4234 669.016
lclavicle 3.46382e-014 -9.54166e-015
lhumerus -45.8908 -28.1197 100.006
lradius 56.9641
lwrist 13.0165
lhand 18.7878 13.8284
lfingers 7.12502
lthumb 43.4042 37.93
rfemur -73.3825 -10.8823 28.8635
rtibia 89.9746
rfoot 23.5186 33.565
rtoes 4.40889
lfemur -11.2322 9.1886 -21.2739
ltibia 32.7205
lfoot -12.2803 -18.7173
ltoes 34.3098
1093
root 4.75375 16.9891 9.46409 -5.43906 19.6157 -0.794737
lowerback 11.4183 -3.11199 -7.26388
upperback 1.51181 -5.06606 -1.12971
thorax -4.27469 -2.38936 3.62006
lowerneck -6.60809 -4.36385 1.08207
upperneck 4.40216 -6.17383 4.03655
head 2.65049 -2.91752 0.839851
rclavicle -1.61513e-015 -1.19271e-014
rhumerus -55.1623 -6.00521 -78.2044
rradius 110.672
rwrist 21.4365
rhand -22.6362 -23.4565
rfingers 7.12502
rthumb 3.79443 666.598
lclavicle -1.61513e-015 -1.19271e-014
lhumerus -45.7544 -28.8801 100.811
lradius 56.596
lwrist 11.2041
lhand 19.1632 13.6572
lfingers 7.12502
lthumb 43.7548 37.631
rfemur -71.9716 -10.7591 27.7975
rtibia 92.1478
rfoot 22.3754 32.6655
rtoes 2.24098
lfemur -11.7299 9.12837 -21.0088
ltibia 32.5105
lfoot -13.2561 -16.5216
ltoes 30.6168
1094
root 4.72884 17.0194 9.47912 -4.92631 20.4797 -0.957107
lowerback 10.8989 -3.37343 -7.24269
upperback 1.3305 -5.3717 -1.04701
thorax -4.13779 -2.54287 3.70095
lowerneck -6.57756 -4.45131 1.05555
upperneck 4.29946 -6.29002 4.14912
head 2.6178 -2.97457 0.876837
rclavicle 3.61043e-014 1.98785e-014
rhumerus -55.854 -6.02523 -78.6757
rradius 110.517
rwrist 24.1756
rhand -24.8467 -25.7007
rfingers 7.12502
rthumb 1.65961 664.326
lclavicle 3.61043e-014 1.98785e-014
lhumerus -45.7096 -29.4234 101.537
lradius 56.2813
lwrist 9.26499
lhand 19.2963 13.2293
lfingers 7.12502
lthumb 43.879 37.1572
rfemur -70.2278 -10.4395 26.6228
rtibia 93.8075
rfoot 21.4451 31.3691
rtoes 1.22646
lfemur -12.0666 9.27906 -20.8715
ltibia 32.1356
lfoot -14.142 -13.5119
ltoes 26.2046
1095
root 4.70454 17.0528 9.49687 -4.3613 21.2017 -0.985722
lowerback 10.3401 -3.60063 -7.36246
upperback 1.14367 -5.64607 -0.982906
thorax -3.97542 -2.67991 3.82895
lowerneck -6.53037 -4.53117 1.03511
upperneck 4.16698 -6.39138 4.20878
head 2.5695 -3.02685 0.897195
rclavicle -4.02539e-015 -3.97569e-015
rhumerus -56.4083 -5.97903 -79.2654
rradius 110.484
rwrist 24.9245
rhand -26.5757 -27.5255
rfingers 7.12502
rthumb -0.0102401 662.495
lclavicle -4.02539e-015 -3.97569e-015
lhumerus -45.7588 -29.7394 102.187
lradius 56.0093
lwrist 7.39536
lhand 19.1864 12.6741
lfingers 7.12502
lthumb 43.7764 36.6398
rfemur -68.2038 -9.93867 25.359
rtibia 94.8988
rfoot 20.7361 29.8821
rtoes 1.03899
lfemur -12.2893 9.66416 -20.8523
ltibia 31.6486
lfoot -14.782 -9.75973
ltoes 21.4451
1096
root 4.68167 17.0879 9.51744 -3.73009 21.8389 -0.919361
lowerback 9.72183 -3.82156 -7.57896
upperback 0.942325 -5.91701 -0.920781
thorax -3.78384 -2.8149 3.99852
lowerneck -6.49156 -4.60588 1.00017
upperneck 4.05486 -6.48277 4.2199
head 2.52805 -3.07548 0.904612
rclavicle 3.77194e-014 -7.95139e-015
rhumerus -56.8278 -5.87877 -79.9283
rradius 110.575
rwrist 23.9517
rhand -27.7932 -28.8122
rfingers 7.12502
rthumb -1.18621 661.211
lclavicle 3.77194e-014 -7.95139e-015
lhumerus -45.886 -29.8502 102.783
lradius 55.7615
lwrist 5.81187
lhand 18.8573 12.1421
lfingers 7.12502
lthumb 43.4691 36.2201
rfemur -65.9749 -9.30468 24.0587
rtibia 95.3871
rfoot 20.0624 28.4355
rtoes 1.00475
lfemur -12.454 10.2892 -20.9248
ltibia 31.1051
lfoot -15.0645 -5.45444
ltoes 17.0305
1097
root 4.66143 17.123 9.54092 -3.03765 22.4491 -0.813068
lowerback 9.04305 -4.06351 -7.80874
upperback 0.711632 -6.21088 -0.855405
thorax -3.58174 -2.96106 4.1716
lowerneck -6.4669 -4.67578 0.953777
upperneck 4.00118 -6.56699 4.1831
head 2.50717 -3.12081 0.898139
rclavicle 3.05383e-014 1.59028e-015
rhumerus -57.1474 -5.75295 -80.6145
rradius 110.786
rwrist 21.716
rhand -28.4502 -29.5676
rfingers 7.12502
rthumb -1.82067 660.46
lclavicle 3.05383e-014 1.59028e-015
lhumerus -46.0992 -29.8083 103.355
lradius 55.5318
lwrist 4.69329
lhand 18.4316 11.8315
lfingers 7.12502
lthumb 43.0713 36.0522
rfemur -63.604 -8.61067 22.7998
rtibia 95.2654
rfoot 19.2424 27.0841
rtoes 0.686476
lfemur -12.6092 11.1428 -21.0433
ltibia 30.5594
lfoot -15.0042 -0.882188
ltoes 13.7779
1098
root 4.64546 17.1566 9.56701 -2.30188 23.08 -0.72828
lowerback 8.29429 -4.344 -7.96459
upperback 0.450594 -6.54108 -0.775088
thorax -3.37067 -3.12629 4.31155
lowerneck -6.45693 -4.74731 0.889441
upperneck 4.02169 -6.65324 4.10588
head 2.51286 -3.16694 0.880651
rclavicle -5.27028e-014 1.27222e-014
rhumerus -57.3896 -5.63013 -81.2609
rradius 111.09
rwrist 18.75
rhand -28.4926 -29.8814
rfingers 7.12502
rthumb -1.86166 660.147
lclavicle -5.27028e-014 1.27222e-014
lhumerus -46.3964 -29.7009 103.944
lradius 55.3252
lwrist 4.16236
lhand 18.0276 11.8657
lfingers 7.12502
lthumb 42.6935 36.2191
rfemur -61.153 -7.94292 21.6729
rtibia 94.5605
rfoot 18.1786 25.6845
rtoes 0.0614464
lfemur -12.7984 12.2188 -21.1594
ltibia 30.0584
lfoot -14.7683 3.6828
ltoes 11.9399
1099
root 4.63522 17.1877 9.59528 -1.54876 23.7629 -0.719798
lowerback 7.47516 -4.67333 -7.96416
upperback 0.160243 -6.91551 -0.672076
thorax -3.15722 -3.31551 4.3803
lowerneck -6.46043 -4.81977 0.801614
upperneck 4.11892 -6.7405 3.99676
head 2.54634 -3.21325 0.855768
rclavicle 8.03463e-014 -3.18055e-015
rhumerus -57.5765 -5.51324 -81.831
rradius 111.443
rwrist 15.5551
rhand -27.9263 -29.8965
rfingers 7.12502
rthumb -1.31469 660.128
lclavicle 8.03463e-014 -3.18055e-015
lhumerus -46.7638 -29.6015 104.586
lradius 55.1353
lwrist 4.22768
lhand 17.7628 12.3414
lfingers 7.12502
lthumb 42.4455 36.7804
rfemur -58.6672 -7.38703 20.7676
rtibia 93.3245
rfoot 16.7683 24.0048
rtoes -1.1184
lfemur -13.0505 13.4819 -21.2214
ltibia 29.6423
lfoot -14.5745 7.98503
ltoes 11.6926
1100
root 4.63185 17.2146 9.62529 -0.804238 24.5199 -0.813123
lowerback 6.59304 -5.04969 -7.75278
upperback -0.154525 -7.33209 -0.550828
thorax -2.95 -3.52832 4.34237
lowerneck -6.47952 -4.89598 0.695739
upperneck 4.29158 -6.83299 3.86227
head 2.6078 -3.26175 0.824296
rclavicle -2.44754e-014 -2.3059e-014
rhumerus -57.7321 -5.39554 -82.3201
rradius 111.808
rwrist 12.4804
rhand -26.8483 -29.7461
rfingers 7.12502
rthumb -0.273556 660.274
lclavicle -2.44754e-014 -2.3059e-014
lhumerus -47.1946 -29.5806 105.305
lradius 54.9512
lwrist 4.78619
lhand 17.7058 13.273
lfingers 7.12502
lthumb 42.3922 37.7303
rfemur -56.1805 -7.03675 20.143
rtibia 91.6315
rfoot 15.0905 21.6877
rtoes -2.68527
lfemur -13.3874 14.9136 -21.2125
ltibia 29.3341
lfoot -14.5965 11.8249
ltoes 12.7107
1101
root 4.63592 17.2363 9.65619 -0.0834911 25.3498 -0.99979
lowerback 5.6517 -5.45799 -7.32735
upperback -0.483074 -7.77622 -0.415994
thorax -2.74689 -3.75798 4.1894
lowerneck -6.50192 -4.9799 0.571024
upperneck 4.50826 -6.93426 3.70832
head 2.68493 -3.315 0.788626
rclavicle -9.70193e-014 8.74653e-015
rhumerus -57.8701 -5.25154 -82.7423
rradius 112.157
rwrist 9.68783
rhand -25.4755 -29.5197
rfingers 7.12502
rthumb 1.05231 660.503
lclavicle -9.70193e-014 8.74653e-015
lhumerus -47.6696 -29.678 106.112
lradius 54.756
lwrist 5.63644
lhand 17.8646 14.553
lfingers 7.12502
lthumb 42.5408 38.9592
rfemur -53.7119 -6.95369 19.8096
rtibia 89.5523
rfoot 13.4086 18.3717
rtoes -4.17224
lfemur -13.8254 16.4502 -21.1477
ltibia 29.1478
lfoot -14.8523 15.1043
ltoes 14.5437
